<svg width="77" height="71" viewBox="0 0 77 71" fill="none" xmlns="http://www.w3.org/2000/svg">
<path d="M1.73287 70.6128C1.5158 70.6128 1.29527 70.5718 1.08188 70.4852C0.194978 70.1253 -0.232226 69.1145 0.127604 68.2276L4.9083 56.4449C7.01767 51.248 10.7982 44.3393 19.2389 44.3393H25.5802C34.0212 44.3393 37.8017 51.248 39.9108 56.4446L40.5276 57.9643L53.3764 46.0901C54.0796 45.4407 55.176 45.4838 55.8255 46.1868C56.4752 46.8897 56.4321 47.9861 55.7291 48.6358L41.0399 62.2108C40.6221 62.5971 40.0406 62.7535 39.486 62.6293C38.9308 62.5054 38.4715 62.1168 38.2577 61.5895L36.6994 57.7483C34.4378 52.1763 31.8587 49.1586 28.3781 48.1727L23.7341 54.5365C23.4078 54.9837 22.8877 55.2479 22.3342 55.2479C21.7807 55.2479 21.2605 54.9837 20.9343 54.5365L16.3167 48.2091C12.8995 49.2316 10.3547 52.2437 8.12013 57.7488L3.33965 69.5313C3.06604 70.2044 2.41743 70.6128 1.73287 70.6128ZM20.3136 47.8055L22.3342 50.5745L24.3547 47.8055H20.3136ZM75.2669 65.0823H48.9231C47.966 65.0823 47.19 64.3063 47.19 63.3492C47.19 62.3921 47.966 61.6161 48.9231 61.6161H73.5339V11.7178H70.2243V19.2963C70.2243 23.0359 67.1821 26.0781 63.4426 26.0781H42.9279L36.6743 29.583C36.1375 29.8839 35.4817 29.8776 34.951 29.5665C34.4202 29.2555 34.094 28.6866 34.094 28.0713V7.16652C34.094 3.42697 37.1364 0.384766 40.8759 0.384766H63.4428C67.1823 0.384766 70.2245 3.42697 70.2245 7.16652V8.25164H75.2671C76.2242 8.25164 77.0002 9.02763 77.0002 9.98472V63.3492C77 64.3065 76.224 65.0823 75.2669 65.0823ZM40.8757 3.85092C39.0476 3.85092 37.5599 5.33834 37.5599 7.16652V25.1132L41.6279 22.8333C41.8865 22.6882 42.1784 22.6121 42.4751 22.6121H63.4424C65.2705 22.6121 66.7579 21.1247 66.7579 19.2965V7.16652C66.7579 5.33834 65.2708 3.85092 63.4424 3.85092H40.8757ZM3.10677 49.9187C2.14967 49.9187 1.37369 49.1427 1.37369 48.1857V9.98472C1.37369 9.02763 2.14967 8.25164 3.10677 8.25164H28.2589C29.216 8.25164 29.992 9.02763 29.992 9.98472C29.992 10.9418 29.216 11.7178 28.2589 11.7178H4.83984V48.1857C4.83984 49.143 4.06386 49.9187 3.10677 49.9187ZM22.4096 41.1786C17.1434 41.1786 12.8592 36.8944 12.8592 31.6285C12.8592 27.2927 15.7636 23.6225 19.7291 22.4611C19.7499 22.4544 19.7705 22.4479 19.7915 22.4421C20.6401 22.2005 21.5207 22.0781 22.4091 22.0781C27.2039 22.0781 31.198 25.5712 31.8635 30.2693C31.927 30.7132 31.9599 31.1673 31.9599 31.6285C31.9599 36.8944 27.6757 41.1786 22.4096 41.1786ZM19.0496 26.5586C17.409 27.6495 16.3256 29.5148 16.3256 31.6285C16.3256 34.9833 19.055 37.7124 22.4098 37.7124C25.3376 37.7124 27.7888 35.6343 28.3655 32.8752C28.2587 32.8787 28.1521 32.8804 28.0451 32.8804C23.9119 32.8806 20.3734 30.2847 19.0496 26.5586ZM22.3721 25.5445C23.257 27.8333 25.4698 29.4145 28.0451 29.4145C28.0557 29.4145 28.0666 29.4145 28.077 29.4145C27.1896 27.1513 24.9838 25.5445 22.4098 25.5445C22.3972 25.5445 22.3844 25.5445 22.3721 25.5445ZM58.2912 18.4499H44.4333C43.4762 18.4499 42.7002 17.674 42.7002 16.7169C42.7002 15.7598 43.4762 14.9838 44.4333 14.9838H58.2912C59.2483 14.9838 60.0243 15.7598 60.0243 16.7169C60.0243 17.674 59.2483 18.4499 58.2912 18.4499ZM54.0101 11.4791H44.4335C43.4764 11.4791 42.7004 10.7031 42.7004 9.74599C42.7004 8.78889 43.4764 8.01291 44.4335 8.01291H54.0101C54.9672 8.01291 55.7432 8.78889 55.7432 9.74599C55.7432 10.7031 54.9672 11.4791 54.0101 11.4791ZM27.9578 3.85135H21.1997C20.2426 3.85135 19.4666 3.07537 19.4666 2.11828C19.4666 1.16118 20.2426 0.385199 21.1997 0.385199H27.9578C28.9149 0.385199 29.6909 1.16118 29.6909 2.11828C29.6909 3.07537 28.9149 3.85135 27.9578 3.85135Z" fill="black"/>
</svg>
