<svg width="186" height="60" viewBox="0 0 186 60" fill="none" xmlns="http://www.w3.org/2000/svg">
<g clip-path="url(#clip0)">
<path d="M46.0913 57.9049C41.36 57.1288 37.6659 56.7175 31.3694 56.7149C25.1609 56.7149 21.5885 57.1081 16.945 57.8557C13.7732 58.3875 10.6337 59.0974 7.54171 59.9821L6.08789 59.0509C9.13006 58.1946 13.476 57.1133 16.7406 56.583C21.5723 55.7589 26.4684 55.3728 31.3694 55.4292C36.3746 55.3718 41.3745 55.7745 46.3061 56.6321C49.8487 57.262 53.3561 58.0762 56.8139 59.0716L55.4533 60.0003C52.3769 59.1236 49.2529 58.424 46.0965 57.9049H46.0913Z" fill="#FF9900"/>
<path d="M32.2568 45.0309C32.2568 40.6617 34.347 38.3594 35.2447 37.4436C35.5735 37.0925 35.9721 36.814 36.4149 36.626C36.8578 36.438 37.335 36.3446 37.816 36.352L37.8419 37.4979C37.5101 37.4871 37.1799 37.5478 36.8737 37.6759C36.5675 37.804 36.2925 37.9965 36.0673 38.2404C35.2317 39.1225 33.4158 41.0342 33.4028 45.0309H32.2594H32.2568Z" fill="#FF9900"/>
<path d="M33.4052 53.8426C32.7145 52.2025 32.3187 49.5897 32.2333 43.0061C32.2333 42.8173 32.2333 42.6285 32.2333 42.4422C32.2333 40.5564 32.3264 39.0922 32.3264 38.0445C32.3264 37.2115 32.2488 36.6605 32.1195 36.4355C31.9927 36.244 31.9436 36.1768 31.4185 36.1432V34.9972C31.7595 34.967 32.1021 35.0356 32.4053 35.1948C32.7085 35.3539 32.9595 35.5969 33.1284 35.8948C33.4285 36.4795 33.4647 37.1598 33.4673 38.0419C33.4673 39.1491 33.3767 40.5822 33.3767 42.4396C33.3767 42.6129 33.3767 42.7992 33.3767 42.988C33.4517 49.5302 33.8812 52.0421 34.4554 53.3899C34.9288 54.4246 35.3427 54.8075 36.5482 54.9808C36.6853 55.0015 36.9311 55.0118 36.9311 55.0118L37.9193 55.6637L38.3952 56.2535H38.2116C35.6376 56.2535 34.1554 55.7362 33.4052 53.8374V53.8426Z" fill="#FF9900"/>
<path d="M30.6386 45.0302C30.6386 40.6609 28.5458 38.3586 27.6507 37.4429C27.3231 37.0938 26.9265 36.8167 26.486 36.6292C26.0456 36.4417 25.5709 36.3479 25.0923 36.3538L25.0664 37.4998C25.3982 37.4887 25.7284 37.5494 26.0347 37.6775C26.3409 37.8056 26.6159 37.9982 26.841 38.2422C27.6766 39.1243 29.4926 41.036 29.5055 45.0328H30.6489L30.6386 45.0302Z" fill="#FF9900"/>
<path d="M29.4886 53.8444C30.1793 52.2043 30.5777 49.5915 30.6605 43.008C30.6605 42.8191 30.6605 42.6303 30.6605 42.444C30.6605 40.5582 30.5674 39.094 30.5674 38.0463C30.5674 37.2134 30.645 36.6624 30.7743 36.4373C30.9011 36.2459 30.9502 36.1786 31.4754 36.145V34.999C31.1343 34.9692 30.7919 35.0379 30.4887 35.197C30.1856 35.3561 29.9346 35.599 29.7654 35.8966C29.4679 36.4813 29.4291 37.1616 29.4266 38.0437C29.4266 39.1509 29.5171 40.5841 29.5171 42.4414C29.5171 42.6147 29.5171 42.801 29.5171 42.9898C29.4421 49.532 29.0127 52.0439 28.4358 53.3917C27.965 54.4264 27.5485 54.8093 26.3456 54.9826C26.2085 55.0033 25.9627 55.0136 25.9627 55.0136L24.9745 55.6655L24.4985 56.2553H24.6822C27.2562 56.2553 28.7384 55.738 29.4886 53.8392V53.8444Z" fill="#FF9900"/>
<path d="M40.0353 31.4064C40.0484 31.861 39.9264 32.3093 39.6849 32.6948C39.4435 33.0802 39.0932 33.3854 38.6784 33.572C38.2637 33.7586 37.8029 33.8181 37.3543 33.7431C36.9057 33.6681 36.4894 33.4619 36.1579 33.1506C35.8263 32.8392 35.5944 32.4367 35.4914 31.9937C35.3885 31.5506 35.419 31.0871 35.5792 30.6614C35.7394 30.2357 36.0221 29.867 36.3916 29.6019C36.7611 29.3367 37.2009 29.1869 37.6554 29.1714C37.9587 29.1607 38.2612 29.2101 38.5453 29.3168C38.8294 29.4236 39.0896 29.5855 39.3108 29.7933C39.532 30.001 39.71 30.2506 39.8343 30.5274C39.9587 30.8043 40.027 31.103 40.0353 31.4064Z" fill="#FF9900"/>
<path d="M47.3821 19.3196C47.7837 19.3055 48.1805 19.4108 48.5222 19.6223C48.8639 19.8338 49.1351 20.142 49.3016 20.5077C49.4681 20.8735 49.5224 21.2804 49.4575 21.677C49.3926 22.0736 49.2115 22.442 48.9371 22.7356C48.6627 23.0292 48.3073 23.2348 47.916 23.3264C47.5247 23.4179 47.1151 23.3913 46.7389 23.2499C46.3627 23.1085 46.037 22.8587 45.8029 22.532C45.5688 22.2054 45.4368 21.8166 45.4238 21.415C45.4138 21.1486 45.4566 20.8828 45.5497 20.633C45.6429 20.3832 45.7846 20.1543 45.9666 19.9596C46.1487 19.7648 46.3675 19.6079 46.6104 19.4981C46.8533 19.3883 47.1156 19.3276 47.3821 19.3196Z" fill="#FF9900"/>
<path d="M31.06 7.91336C31.4614 7.89928 31.8579 8.00454 32.1995 8.21584C32.541 8.42714 32.8123 8.73497 32.9789 9.10043C33.1455 9.46588 33.2 9.87253 33.1355 10.269C33.071 10.6654 32.8904 11.0338 32.6165 11.3276C32.3426 11.6213 31.9878 11.8273 31.5969 11.9194C31.2059 12.0115 30.7965 11.9856 30.4202 11.845C30.044 11.7044 29.7179 11.4554 29.4833 11.1294C29.2486 10.8035 29.1158 10.4153 29.1017 10.0139C29.091 9.74707 29.1333 9.48075 29.2261 9.23036C29.319 8.97996 29.4606 8.75046 29.6427 8.55513C29.8248 8.35979 30.0438 8.2025 30.2871 8.09234C30.5303 7.98218 30.793 7.92135 31.06 7.91336Z" fill="#FF9900"/>
<path d="M27.1886 19.1738C26.8032 19.5837 26.3049 19.8701 25.7568 19.9969C25.2086 20.1236 24.6352 20.0851 24.1089 19.886C23.5827 19.687 23.1273 19.3364 22.8002 18.8787C22.4732 18.4209 22.2891 17.8764 22.2714 17.314C22.2537 16.7517 22.4031 16.1967 22.7007 15.7193C22.9983 15.2418 23.4308 14.8633 23.9435 14.6315C24.4562 14.3998 25.026 14.3252 25.5811 14.4172C26.1361 14.5093 26.6514 14.7638 27.0618 15.1486C27.3347 15.4044 27.5545 15.7115 27.7085 16.0524C27.8626 16.3932 27.948 16.7611 27.9597 17.1349C27.9715 17.5088 27.9095 17.8813 27.7771 18.2311C27.6448 18.581 27.4448 18.9013 27.1886 19.1738Z" fill="#FF9900"/>
<path d="M8.79597 22.1096C9.18172 22.1693 9.54104 22.3423 9.82838 22.6065C10.1157 22.8707 10.3182 23.2143 10.41 23.5937C10.5019 23.9731 10.479 24.3712 10.3443 24.7376C10.2097 25.104 9.96925 25.4221 9.65356 25.6517C9.33787 25.8813 8.96112 26.012 8.57106 26.0272C8.18101 26.0424 7.79521 25.9415 7.46258 25.7372C7.12995 25.533 6.86546 25.2345 6.70263 24.8798C6.5398 24.525 6.48597 24.1299 6.54797 23.7445C6.63004 23.2299 6.91274 22.7689 7.33412 22.4625C7.7555 22.156 8.28118 22.0291 8.79597 22.1096Z" fill="#FF9900"/>
<path d="M43.9168 25.7811C43.7484 26.1816 43.5026 26.545 43.1937 26.8506C42.8847 27.1561 42.5186 27.3978 42.1163 27.5619C41.7139 27.726 41.2832 27.8092 40.8487 27.8068C40.4141 27.8044 39.9844 27.7164 39.5838 27.5479C39.1833 27.3794 38.8199 27.1337 38.5144 26.8247C38.2088 26.5158 37.9671 26.1497 37.803 25.7473C37.4717 24.9347 37.4767 24.0238 37.817 23.2149C38.5258 21.5257 43.3115 18.2559 43.3115 18.2559C43.3115 18.2559 44.6205 24.0919 43.9168 25.7811Z" fill="#FF9900"/>
<path d="M54.2389 22.2476C53.8316 22.5955 53.3041 22.7697 52.7698 22.733C52.2354 22.6963 51.7367 22.4516 51.3808 22.0513C51.0249 21.651 50.8402 21.1272 50.8662 20.5922C50.8922 20.0572 51.127 19.5538 51.52 19.1899C52.3582 18.4423 55.8996 17.8965 55.8996 17.8965C55.8996 17.8965 55.0848 21.4974 54.2389 22.2476Z" fill="#FF9900"/>
<path d="M3.46383 24.3867C3.90906 24.4015 4.33128 24.5881 4.64186 24.9075C4.95244 25.2268 5.12724 25.6541 5.12959 26.0996C5.13193 26.545 4.96163 26.9741 4.65442 27.2967C4.34722 27.6193 3.92699 27.8104 3.48194 27.8299C2.53773 27.8402 0 26.2182 0 26.2182C0 26.2182 2.51444 24.3997 3.46383 24.3867Z" fill="#FF9900"/>
<path d="M61.1598 29.9493C60.7903 29.907 60.4516 29.7232 60.2148 29.4364C59.9779 29.1497 59.8613 28.7824 59.8894 28.4116C59.9175 28.0408 60.0881 27.6952 60.3655 27.4475C60.6429 27.1998 61.0055 27.0692 61.3771 27.083C62.1687 27.1399 64.1683 28.6688 64.1683 28.6688C64.1683 28.6688 61.9514 30.0088 61.1598 29.9493Z" fill="#FF9900"/>
<path d="M43.0425 6.63465C43.0377 7.09398 42.8507 7.53259 42.5225 7.85399C42.36 8.01314 42.1677 8.13871 41.9567 8.22355C41.7456 8.30839 41.52 8.35083 41.2925 8.34846C41.0651 8.34608 40.8403 8.29893 40.6311 8.20969C40.4219 8.12046 40.2323 7.99089 40.0732 7.82839C39.7518 7.50019 39.5739 7.05777 39.5787 6.59843C39.5787 5.64905 41.2654 3.11133 41.2654 3.11133C41.2654 3.11133 43.0503 5.67492 43.0425 6.63465Z" fill="#FF9900"/>
<path d="M54.6655 32.8996C54.151 32.9497 53.6376 32.7933 53.2383 32.4649C52.839 32.1365 52.5866 31.6629 52.5365 31.1483C52.4864 30.6338 52.6428 30.1204 52.9712 29.7211C53.2997 29.3218 53.7733 29.0694 54.2878 29.0193C55.3743 28.9081 58.4527 30.4809 58.4527 30.4809C58.4527 30.4809 55.7546 32.7858 54.6655 32.8996Z" fill="#FF9900"/>
<path d="M47.5744 6.2915C47.5093 6.47063 47.4088 6.63487 47.2791 6.7745C47.1493 6.91413 46.9929 7.02632 46.819 7.10443C46.6452 7.18254 46.4574 7.22499 46.2668 7.22925C46.0763 7.23351 45.8868 7.19951 45.7096 7.12926C45.5324 7.059 45.3711 6.95393 45.2352 6.82024C45.0994 6.68655 44.9917 6.52697 44.9186 6.35093C44.8455 6.1749 44.8084 5.98599 44.8096 5.79538C44.8108 5.60478 44.8502 5.41634 44.9255 5.24123C45.2152 4.51173 47.2537 3.05273 47.2537 3.05273C47.2537 3.05273 47.8564 5.55942 47.5744 6.2915Z" fill="#FF9900"/>
<path d="M59.8264 19.6158C59.6521 19.7234 59.458 19.7948 59.2555 19.8257C59.0531 19.8567 58.8465 19.8466 58.6481 19.7961C58.4496 19.7455 58.2634 19.6555 58.1004 19.5315C57.9375 19.4075 57.8011 19.2519 57.6995 19.0741C57.598 18.8963 57.5332 18.6999 57.5091 18.4965C57.485 18.2931 57.5021 18.087 57.5594 17.8904C57.6166 17.6938 57.7128 17.5107 57.8423 17.352C57.9718 17.1934 58.1319 17.0624 58.313 16.9669C59.04 16.553 61.707 16.7082 61.707 16.7082C61.707 16.7082 60.5507 19.1968 59.8264 19.6158Z" fill="#FF9900"/>
<path d="M53.1652 14.171C52.9977 14.3206 52.8024 14.4358 52.5904 14.51C52.3784 14.5841 52.1539 14.6158 51.9296 14.6032C51.7054 14.5906 51.4858 14.5339 51.2835 14.4365C51.0812 14.339 50.9 14.2026 50.7504 14.0352C50.6007 13.8677 50.4855 13.6724 50.4114 13.4604C50.3372 13.2484 50.3055 13.0239 50.3181 12.7996C50.3307 12.5754 50.3874 12.3558 50.4849 12.1535C50.5823 11.9511 50.7187 11.77 50.8862 11.6203C51.5924 10.9969 54.5466 10.5312 54.5466 10.5312C54.5466 10.5312 53.8662 13.5398 53.1652 14.171Z" fill="#FF9900"/>
<path d="M47.2662 14.9609C47.0875 15.2415 46.8553 15.4841 46.5828 15.675C46.3103 15.8659 46.0029 16.0012 45.6782 16.0733C45.3534 16.1453 45.0176 16.1527 44.69 16.095C44.3624 16.0373 44.0493 15.9156 43.7687 15.7369C43.4881 15.5583 43.2455 15.326 43.0546 15.0536C42.8637 14.7811 42.7284 14.4737 42.6563 14.1489C42.5843 13.8242 42.5769 13.4884 42.6346 13.1608C42.6923 12.8331 42.814 12.5201 42.9927 12.2395C43.7454 11.0599 47.7784 9.20508 47.7784 9.20508C47.7784 9.20508 48.019 13.7735 47.2662 14.9609Z" fill="#FF9900"/>
<path d="M7.86195 17.0524C8.32851 17.2446 8.70245 17.6101 8.90521 18.0721C9.10798 18.5342 9.1238 19.0568 8.94935 19.5303C8.77489 20.0038 8.42374 20.3912 7.96966 20.6112C7.51557 20.8312 6.99389 20.8667 6.51419 20.7102C5.50531 20.3403 3.47461 17.5905 3.47461 17.5905C3.47461 17.5905 6.85824 16.6799 7.86195 17.0524Z" fill="#FF9900"/>
<path d="M39.8388 15.4147C39.7708 15.8081 39.6261 16.1843 39.4127 16.5217C39.1994 16.8592 38.9217 17.1513 38.5955 17.3814C38.2693 17.6115 37.901 17.7752 37.5115 17.8629C37.1221 17.9507 36.7192 17.9609 36.3258 17.893C35.9324 17.825 35.5563 17.6803 35.2188 17.467C34.8814 17.2536 34.5892 16.9759 34.3591 16.6497C34.129 16.3235 33.9654 15.9552 33.8776 15.5657C33.7898 15.1763 33.7796 14.7734 33.8476 14.38C34.1476 12.7089 37.7693 8.79492 37.7693 8.79492C37.7693 8.79492 40.1337 13.7643 39.8388 15.4147Z" fill="#FF9900"/>
<path d="M14.2083 11.2551C14.4558 11.483 14.6545 11.7587 14.7923 12.0656C14.9301 12.3725 15.0042 12.7041 15.01 13.0405C15.0159 13.3768 14.9535 13.7109 14.8265 14.0224C14.6995 14.3339 14.5106 14.6164 14.2712 14.8528C14.0319 15.0892 13.7471 15.2745 13.434 15.3976C13.1209 15.5207 12.7861 15.5789 12.4498 15.5688C12.1136 15.5587 11.7829 15.4805 11.4778 15.3389C11.1726 15.1972 10.8994 14.9951 10.6747 14.7448C9.70976 13.767 8.82764 9.48828 8.82764 9.48828C8.82764 9.48828 13.2434 10.2721 14.2083 11.2551Z" fill="#FF9900"/>
<path d="M20.6181 12.9545C20.8884 13.3595 20.9871 13.8552 20.8925 14.3328C20.798 14.8105 20.5179 15.2312 20.1136 15.5026C19.9139 15.638 19.6891 15.7321 19.4525 15.7794C19.2159 15.8267 18.9723 15.8262 18.7359 15.778C18.4995 15.7298 18.2751 15.6348 18.0759 15.4987C17.8767 15.3626 17.7067 15.188 17.5759 14.9852C17.0145 14.1445 16.9731 10.9238 16.9731 10.9238C16.9731 10.9238 20.0567 12.1112 20.6181 12.9545Z" fill="#FF9900"/>
<path d="M7.98995 28.802C8.54541 28.7361 9.10454 28.8907 9.54729 29.2325C9.99003 29.5744 10.2811 30.0762 10.358 30.6302C10.4348 31.1842 10.2914 31.7463 9.95845 32.1958C9.62549 32.6453 9.12958 32.9462 8.57718 33.0341C7.40791 33.2048 4.02686 31.6061 4.02686 31.6061C4.02686 31.6061 6.82845 28.9727 7.98995 28.802Z" fill="#FF9900"/>
<path d="M24.5301 23.6073C24.7935 23.9065 24.9944 24.2554 25.1208 24.6335C25.2473 25.0115 25.2969 25.4111 25.2666 25.8086C25.2362 26.2061 25.1267 26.5935 24.9444 26.948C24.762 27.3025 24.5106 27.617 24.2048 27.8728C23.8991 28.1287 23.5453 28.3207 23.1642 28.4377C22.7831 28.5547 22.3824 28.5942 21.9858 28.554C21.5892 28.5138 21.2046 28.3946 20.8548 28.2034C20.5049 28.0123 20.1969 27.753 19.9488 27.441C18.883 26.176 18.2725 20.9531 18.2725 20.9531C18.2725 20.9531 23.4721 22.3345 24.5301 23.6073Z" fill="#FF9900"/>
<path d="M35.1439 23.171C35.1483 23.6548 35.0574 24.1347 34.8763 24.5833C34.6953 25.0319 34.4277 25.4405 34.0887 25.7856C33.7498 26.1308 33.3462 26.4059 32.9009 26.5951C32.4557 26.7843 31.9775 26.8839 31.4938 26.8884C31.01 26.8928 30.5301 26.8019 30.0815 26.6208C29.6329 26.4398 29.2243 26.1721 28.8792 25.8332C28.534 25.4943 28.2589 25.0906 28.0697 24.6454C27.8805 24.2002 27.7809 23.722 27.7764 23.2383C27.7583 21.1972 31.2299 15.7363 31.2299 15.7363C31.2299 15.7363 35.1258 21.1196 35.1439 23.171Z" fill="#FF9900"/>
<path d="M27.3517 7.85026C27.4964 8.24639 27.5589 8.66786 27.5354 9.08895C27.5119 9.51004 27.4028 9.92191 27.2148 10.2994C27.0268 10.677 26.7638 11.0122 26.442 11.2848C26.1201 11.5573 25.7461 11.7614 25.3427 11.8846C24.9394 12.0078 24.5151 12.0475 24.0959 12.0013C23.6767 11.9551 23.2713 11.8239 22.9045 11.6158C22.5376 11.4078 22.217 11.1271 21.9623 10.791C21.7075 10.455 21.5238 10.0705 21.4226 9.66107C20.9259 8.0184 22.4263 2.78516 22.4263 2.78516C22.4263 2.78516 26.8472 6.20759 27.3517 7.85026Z" fill="#FF9900"/>
<path d="M17.2273 27.1397C17.5028 27.3594 17.7316 27.6319 17.9003 27.9413C18.0691 28.2506 18.1743 28.5905 18.2099 28.9411C18.2455 29.2917 18.2107 29.6458 18.1076 29.9827C18.0046 30.3197 17.8352 30.6327 17.6095 30.9033C17.3839 31.1739 17.1064 31.3967 16.7935 31.5587C16.4806 31.7207 16.1385 31.8185 15.7872 31.8465C15.436 31.8745 15.0826 31.832 14.748 31.7216C14.4134 31.6112 14.1042 31.4351 13.8385 31.2037C12.721 30.2646 11.3525 25.8281 11.3525 25.8281C11.3525 25.8281 16.1046 26.2006 17.2273 27.1397Z" fill="#FF9900"/>
<path d="M34.8462 3.90618C34.8122 4.1416 34.7322 4.36803 34.6107 4.57253C34.4892 4.77703 34.3287 4.9556 34.1382 5.09805C33.9477 5.2405 33.731 5.34403 33.5005 5.40273C33.27 5.46144 33.0302 5.47417 32.7948 5.4402C32.5594 5.40623 32.3329 5.32622 32.1284 5.20474C31.9239 5.08327 31.7454 4.9227 31.6029 4.73221C31.4605 4.54172 31.3569 4.32504 31.2982 4.09454C31.2395 3.86404 31.2268 3.62423 31.2608 3.38881C31.3979 2.40579 33.4855 0 33.4855 0C33.4855 0 34.9833 2.90765 34.8462 3.90618Z" fill="#FF9900"/>
<path d="M15.95 18.328C16.4291 18.6558 16.7685 19.1507 16.9017 19.7157C17.0348 20.2807 16.9521 20.8751 16.6696 21.3823C16.3872 21.8895 15.9255 22.2729 15.3751 22.4572C14.8247 22.6416 14.2252 22.6138 13.6942 22.3791C12.5741 21.7504 10.6831 18.1521 10.6831 18.1521C10.6831 18.1521 14.8325 17.6942 15.95 18.328Z" fill="#FF9900"/>
<path d="M50.1097 31.3812C49.7803 31.6245 49.4063 31.8005 49.0089 31.8991C48.6115 31.9978 48.1986 32.0173 47.7937 31.9564C47.3889 31.8955 46.9999 31.7554 46.6492 31.5442C46.2984 31.333 45.9927 31.0548 45.7495 30.7255C45.5062 30.3961 45.3302 30.0221 45.2316 29.6247C45.1329 29.2273 45.1134 28.8144 45.1743 28.4096C45.2352 28.0047 45.3753 27.6158 45.5865 27.265C45.7977 26.9142 46.0759 26.6085 46.4052 26.3653C47.7892 25.3461 53.2424 25.0098 53.2424 25.0098C53.2424 25.0098 51.4781 30.3568 50.1097 31.3812Z" fill="#FF9900"/>
<path d="M59.817 25.8685C59.5325 26.1707 59.1648 26.3819 58.7604 26.4753C58.3559 26.5687 57.9329 26.5403 57.5446 26.3934C57.1563 26.2466 56.8203 25.9881 56.5788 25.6504C56.3374 25.3127 56.2014 24.9111 56.1881 24.4962C56.1748 24.0813 56.2846 23.6718 56.5038 23.3193C56.7231 22.9668 57.0418 22.6872 57.4198 22.5157C57.7979 22.3443 58.2182 22.2886 58.6278 22.3559C59.0374 22.4231 59.4179 22.6102 59.7213 22.8935C59.924 23.0819 60.0874 23.3086 60.202 23.5605C60.3166 23.8124 60.3802 24.0845 60.3891 24.3611C60.398 24.6376 60.3521 24.9133 60.2539 25.172C60.1557 25.4307 60.0072 25.6674 59.817 25.8685Z" fill="#FF9900"/>
<path d="M27.0019 30.0638C27.3429 30.3661 27.5866 30.7628 27.702 31.2037C27.8174 31.6446 27.7993 32.1098 27.6501 32.5405C27.5009 32.9711 27.2272 33.3478 26.8638 33.6227C26.5003 33.8977 26.0635 34.0586 25.6085 34.0851C25.1535 34.1116 24.7009 34.0025 24.308 33.7715C23.9151 33.5406 23.5996 33.1982 23.4014 32.7878C23.2032 32.3774 23.1313 31.9174 23.1948 31.4661C23.2583 31.0148 23.4542 30.5925 23.7579 30.2526C24.1637 29.7985 24.7329 29.5237 25.3409 29.4883C25.9489 29.4529 26.5461 29.6598 27.0019 30.0638Z" fill="#FF9900"/>
<path d="M33.5448 29.8527C33.7388 30.2631 33.8069 30.7219 33.7404 31.171C33.6739 31.6201 33.4758 32.0394 33.1712 32.376C32.8665 32.7126 32.4689 32.9514 32.0286 33.0622C31.5883 33.173 31.1251 33.1508 30.6974 32.9985C30.2697 32.8462 29.8967 32.5706 29.6256 32.2064C29.3544 31.8423 29.1973 31.406 29.1739 30.9525C29.1506 30.4991 29.2622 30.049 29.4945 29.6589C29.7268 29.2689 30.0695 28.9564 30.4793 28.761C31.0307 28.4996 31.6632 28.4678 32.238 28.6725C32.8128 28.8772 33.2828 29.3017 33.5448 29.8527Z" fill="#FF9900"/>
<path d="M20.7834 31.8502C21.1544 31.9838 21.4775 32.2245 21.7116 32.5419C21.9457 32.8593 22.0803 33.239 22.0984 33.633C22.1165 34.027 22.0172 34.4174 21.8131 34.7549C21.6091 35.0924 21.3094 35.3617 20.9521 35.5287C20.5949 35.6958 20.1961 35.753 19.8062 35.6931C19.4164 35.6332 19.0532 35.459 18.7625 35.1925C18.4718 34.926 18.2667 34.5791 18.1733 34.196C18.08 33.8128 18.1024 33.4105 18.2379 33.0402C18.4187 32.5456 18.788 32.1428 19.265 31.9199C19.7421 31.6969 20.2879 31.6718 20.7834 31.8502Z" fill="#FF9900"/>
<path d="M44.7534 34.3878C44.621 34.7571 44.3821 35.0789 44.0669 35.3126C43.7517 35.5462 43.3743 35.6811 42.9824 35.7003C42.5906 35.7194 42.2018 35.622 41.8653 35.4203C41.5288 35.2185 41.2596 34.9215 41.0919 34.5669C40.9241 34.2122 40.8653 33.8157 40.9228 33.4276C40.9803 33.0395 41.1516 32.6772 41.415 32.3864C41.6784 32.0956 42.0221 31.8895 42.4027 31.794C42.7833 31.6985 43.1836 31.718 43.553 31.85C44.048 32.0283 44.4522 32.3955 44.6772 32.8711C44.9021 33.3467 44.9295 33.892 44.7534 34.3878Z" fill="#FF9900"/>
<path d="M19.7265 4.23482C19.8381 4.41252 19.9121 4.61124 19.9438 4.81868C19.9756 5.02611 19.9644 5.23786 19.911 5.44081C19.8577 5.64376 19.7633 5.83361 19.6336 5.99861C19.5039 6.16361 19.3418 6.30025 19.1572 6.40008C18.9726 6.49991 18.7695 6.5608 18.5604 6.579C18.3514 6.59719 18.1408 6.5723 17.9418 6.50585C17.7427 6.43941 17.5594 6.33284 17.4032 6.19272C17.247 6.0526 17.1212 5.88192 17.0335 5.69123C16.6352 4.9488 16.8395 2.25586 16.8395 2.25586C16.8395 2.25586 19.3203 3.49497 19.7265 4.23482Z" fill="#FF9900"/>
<path d="M75.3587 58.5724H73.2349V37.6445H75.3587V58.5724Z" fill="white"/>
<path d="M82.1644 44.7398C82.2375 45.4755 82.2669 46.215 82.2524 46.9542H82.3119C83.1656 45.446 85.1109 44.3828 86.9398 44.3828C90.4476 44.3828 92.1136 46.3618 92.1136 49.7946V58.5744H90.1708V50.9173C90.1708 47.8441 89.3146 46.16 86.4276 46.16C86.0163 46.16 82.2421 46.4187 82.2421 51.4812V58.5744H80.2993V47.7846C80.2993 47.0447 80.2088 45.7435 80.1519 44.7398H82.1644Z" fill="white"/>
<path d="M98.5603 44.7398C98.6337 45.4755 98.6631 46.2149 98.6483 46.9542H98.7078C99.5615 45.446 101.507 44.3828 103.336 44.3828C106.844 44.3828 108.525 46.3618 108.525 49.7946V58.5744H106.58V50.9173C106.58 47.8441 105.723 46.16 102.839 46.16C102.423 46.16 98.6509 46.4187 98.6509 51.4812V58.5744H96.7056V47.7846C96.7056 47.0447 96.6176 45.7435 96.5581 44.7398H98.5603Z" fill="white"/>
<path d="M119.681 58.9288C115.407 58.9288 112.37 55.8246 112.37 51.6545C112.37 47.4845 115.407 44.3828 119.681 44.3828C123.954 44.3828 127.017 47.4871 127.017 51.6545C127.017 55.822 123.983 58.9288 119.681 58.9288ZM119.681 46.1574C116.496 46.1574 114.491 48.5529 114.491 51.6545C114.491 54.7562 116.496 57.1516 119.681 57.1516C122.865 57.1516 124.898 54.7588 124.898 51.6545C124.898 48.5503 122.894 46.1574 119.681 46.1574Z" fill="white"/>
<path d="M136.626 58.5729H134.445L128.844 44.7383H131.172L135.57 56.3792H135.627L140.025 44.7383H142.234L136.626 58.5729Z" fill="white"/>
<path d="M146.17 40.8365C145.889 40.837 145.614 40.7541 145.38 40.5982C145.146 40.4424 144.963 40.2206 144.856 39.961C144.748 39.7014 144.72 39.4156 144.774 39.1399C144.829 38.8641 144.964 38.6108 145.163 38.4121C145.362 38.2133 145.615 38.078 145.891 38.0233C146.167 37.9685 146.452 37.9969 146.712 38.1047C146.972 38.2125 147.193 38.3949 147.349 38.6289C147.505 38.8628 147.588 39.1378 147.587 39.4189C147.583 39.7934 147.432 40.1512 147.167 40.4161C146.902 40.6809 146.544 40.8318 146.17 40.8365ZM147.142 58.5721H145.2V44.7401H147.145L147.142 58.5721Z" fill="white"/>
<path d="M159.142 48.0201C158.554 46.8974 157.589 46.1575 156.164 46.1575C154.808 46.1575 153.318 46.7473 153.318 48.227C153.318 49.5204 154.234 50.0016 156.032 50.4181L158.006 50.8889C159.92 51.3313 161.369 52.723 161.369 54.6735C161.369 57.6846 158.689 58.9289 156.009 58.9289C153.916 58.9289 152.002 58.1891 150.703 56.2412L152.382 55.0848C153.176 56.3265 154.387 57.1543 156.004 57.1543C157.62 57.1543 159.245 56.4455 159.245 54.852C159.245 53.4603 158.065 52.9869 156.624 52.6325L154.739 52.1901C153.794 51.9521 151.2 51.1838 151.2 48.5685C151.2 45.6996 153.704 44.3984 156.299 44.3984C158.213 44.3984 160.008 45.0788 160.893 46.8818L159.142 48.0201Z" fill="white"/>
<path d="M171.511 46.5115H167.54V54.6732C167.54 56.7427 168.337 57.154 169.545 57.154C170.246 57.1438 170.933 56.9617 171.547 56.6237L171.638 58.4345C170.809 58.7883 169.915 58.9646 169.014 58.9518C167.537 58.9518 165.597 58.3 165.597 55.2552V46.5115H162.679V44.7395H165.597V40.8359H167.54V44.7395H171.511V46.5115Z" fill="white"/>
<path d="M183.014 50.092V49.7351C183.014 47.3396 181.863 46.1574 179.476 46.1574C177.915 46.1406 176.407 46.7219 175.262 47.782L174.097 46.3954C175.365 45.102 177.334 44.3828 179.931 44.3828C182.645 44.3828 184.973 45.9194 184.973 49.2979V55.4753C184.979 56.5143 185.058 57.5516 185.208 58.5796H183.322C183.202 57.8372 183.143 57.0862 183.146 56.3342H183.087C181.967 58.1657 180.435 58.9366 178.221 58.9366C175.776 58.9366 173.477 57.5759 173.477 54.8855C173.477 50.3921 178.751 50.0998 182.052 50.0998L183.014 50.092ZM182.011 51.683C180.037 51.683 175.585 51.833 175.585 54.6113C175.585 56.4428 177.269 57.1516 178.829 57.1516C181.656 57.1516 183.014 55.1416 183.014 52.6893V51.683H182.011Z" fill="white"/>
</g>
<defs>
<clipPath id="clip0">
<rect width="185.194" height="60" fill="white"/>
</clipPath>
</defs>
</svg>
