<svg width="24" height="24" viewBox="0 0 24 24" fill="none" xmlns="http://www.w3.org/2000/svg">
<path d="M23.0625 0.375H22.5938C22.2656 0.375 22.0312 0.65625 22.0312 0.9375V6.14062C19.9688 2.71875 16.2188 0.375 11.9531 0.421875C5.53125 0.421875 0.328125 5.67188 0.375 12.0469C0.375 18.4688 5.57812 23.625 12 23.625C14.9531 23.625 17.7188 22.5 19.7812 20.6719C20.0156 20.4375 20.0156 20.0625 19.7812 19.8281L19.4531 19.5C19.2656 19.3125 18.8906 19.2656 18.7031 19.5C16.9219 21.0938 14.5781 22.0312 12 22.0312C6.46875 22.0312 1.96875 17.5781 1.96875 12C1.96875 6.51562 6.42188 1.96875 12 1.96875C15.8438 1.96875 19.2188 4.21875 20.9062 7.40625H15.5625C15.2344 7.40625 15 7.6875 15 7.96875V8.4375C15 8.76562 15.2344 9 15.5625 9H23.0625C23.3438 9 23.625 8.76562 23.625 8.4375V0.9375C23.625 0.65625 23.3438 0.375 23.0625 0.375Z" fill="black"/>
</svg>
