<svg width="12" height="15" viewBox="0 0 12 15" fill="none" xmlns="http://www.w3.org/2000/svg">
<path d="M10.7461 5.78125L11.375 5.17969C11.5117 5.04297 11.5117 4.85156 11.375 4.71484L10.9102 4.25C10.7734 4.11328 10.582 4.11328 10.4453 4.25L9.87109 4.82422C9.02344 4.05859 7.95703 3.56641 6.78125 3.42969V2.0625H7.54688C7.71094 2.0625 7.875 1.92578 7.875 1.73438V1.07812C7.875 0.914062 7.71094 0.75 7.54688 0.75H4.70312C4.51172 0.75 4.375 0.914062 4.375 1.07812V1.73438C4.375 1.92578 4.51172 2.0625 4.70312 2.0625H5.46875V3.42969C2.625 3.75781 0.4375 6.16406 0.4375 9.0625C0.4375 12.207 2.98047 14.75 6.125 14.75C9.24219 14.75 11.8125 12.207 11.8125 9.0625C11.8125 7.85938 11.4023 6.71094 10.7461 5.78125ZM6.125 13.4375C3.69141 13.4375 1.75 11.4961 1.75 9.0625C1.75 6.65625 3.69141 4.6875 6.125 4.6875C8.53125 4.6875 10.5 6.65625 10.5 9.0625C10.5 11.4961 8.53125 13.4375 6.125 13.4375ZM6.45312 10.375C6.61719 10.375 6.78125 10.2383 6.78125 10.0469V6.32812C6.78125 6.16406 6.61719 6 6.45312 6H5.79688C5.60547 6 5.46875 6.16406 5.46875 6.32812V10.0469C5.46875 10.2383 5.60547 10.375 5.79688 10.375H6.45312Z" fill="black"/>
</svg>
